<svg width="50" height="50" viewBox="0 0 50 50" fill="none" xmlns="http://www.w3.org/2000/svg">
<rect width="50" height="50" rx="3" fill="#2C7F3E"/>
<path fill-rule="evenodd" clip-rule="evenodd" d="M32.6541 9.57168C32.4613 8.82014 32.0988 8.02817 31.6214 7L31.4658 7.07224C30.5936 7.16501 29.9093 7.35302 29.3411 7.71399C28.7648 8.08004 28.3561 8.59328 27.9841 9.24494C25.8403 8.55688 23.5995 8.83731 21.6204 9.74384C21.5048 9.79682 21.3899 9.85196 21.276 9.9092C20.8935 10.0453 20.5228 10.2022 20.1655 10.3783L20.1441 10.3568C19.5948 9.8077 19.0513 9.40842 18.3795 9.20658C17.7122 9.00606 16.9753 9.01756 16.0689 9.17969L15.5767 9.26772L15.6761 9.82361L15.5956 9.82324L15.5933 10.3232C15.5926 10.4757 15.5909 10.6235 15.5892 10.7677C15.5799 11.5471 15.5719 12.22 15.7391 12.948C15.5769 12.9545 15.4191 12.9653 15.2654 12.98L15.264 12.9778L15.26 12.9805C12.3026 13.2661 10.9259 15.0347 11.0031 16.5814C11.0443 17.4076 11.5425 18.1738 12.4557 18.3161C13.2307 18.4369 14.1423 18.0759 15.105 17.2138C15.0715 17.5098 15.0543 17.8102 15.0543 18.1142C15.0543 18.7822 15.1373 19.4329 15.2944 20.0585C15.4035 20.9822 15.6711 21.9113 16.1234 22.8219L16.0325 22.8673C16.8855 24.5755 18.5677 25.8123 20.5348 26.4891C22.2651 27.0844 24.2522 27.2607 26.181 26.9307C29.7284 27.0519 32.5098 25.6209 34.0955 23.3244C35.5724 21.1854 35.9732 18.3518 35.0556 15.4537C35.5822 15.5392 36.0659 15.5096 36.4821 15.3813C37.2774 15.1363 37.8593 14.4984 37.8057 13.6696C37.7541 12.874 37.1272 12.1417 36.0685 11.6237C35.2843 11.2399 34.2145 10.9448 32.8164 10.8039C32.8149 10.3847 32.7604 9.98577 32.6541 9.57168Z" fill="white"/>
<path fill-rule="evenodd" clip-rule="evenodd" d="M32.6541 9.57168C32.4613 8.82014 32.0988 8.02817 31.6214 7L31.4658 7.07224C30.5936 7.16501 29.9093 7.35302 29.3411 7.71399C28.7648 8.08004 28.3561 8.59328 27.9841 9.24494C25.8403 8.55687 23.5995 8.83731 21.6204 9.74384C21.5048 9.79682 21.3899 9.85196 21.276 9.9092C20.8935 10.0453 20.5228 10.2022 20.1655 10.3783L20.1441 10.3568C19.5948 9.8077 19.0513 9.40842 18.3795 9.20658C17.7122 9.00606 16.9753 9.01756 16.0689 9.17969L15.5767 9.26772L15.6761 9.82361L15.5956 9.82324L15.5933 10.3232C15.5926 10.4757 15.5909 10.6235 15.5892 10.7677C15.5799 11.5471 15.5719 12.22 15.7391 12.948C15.5769 12.9545 15.4191 12.9653 15.2654 12.98L15.264 12.9778L15.26 12.9805C12.3026 13.2661 10.9259 15.0347 11.0031 16.5814C11.0443 17.4076 11.5425 18.1738 12.4557 18.3161C13.2307 18.4369 14.1423 18.0759 15.105 17.2138C15.0715 17.5098 15.0543 17.8102 15.0543 18.1142C15.0543 18.7822 15.1373 19.4329 15.2944 20.0585C15.4035 20.9822 15.6711 21.9113 16.1234 22.8219L16.0325 22.8673C16.8855 24.5755 18.5677 25.8123 20.5348 26.4891C22.2651 27.0844 24.2522 27.2607 26.181 26.9307C29.7284 27.0519 32.5098 25.6209 34.0955 23.3244C35.5724 21.1854 35.9732 18.3518 35.0556 15.4537C35.5822 15.5392 36.0659 15.5096 36.4821 15.3813C37.2774 15.1363 37.8593 14.4984 37.8057 13.6696C37.7541 12.874 37.1272 12.1417 36.0685 11.6237C35.2843 11.2399 34.2145 10.9448 32.8164 10.8039C32.8149 10.3847 32.7604 9.98577 32.6541 9.57168Z" fill="white"/>
<rect x="0.690649" y="-0.15167" width="5.14537" height="2.68722" rx="1.34361" transform="matrix(0.842319 0.538979 0.538979 -0.842319 5.19065 32.4541)" stroke="white"/>
<rect x="0.690649" y="-0.15167" width="5.14537" height="2.68722" rx="1.34361" transform="matrix(0.842319 0.538979 0.538979 -0.842319 7.11643 35.1462)" stroke="white"/>
<path d="M10.1304 37.2221L11.6956 37.7438V42.9612H10.1304V37.2221Z" fill="white"/>
<rect x="10.1304" y="41.9177" width="3.65217" height="1.04348" fill="white"/>
<rect x="14.8261" y="38.2656" width="2.6087" height="1.04348" fill="white"/>
<rect x="15.3478" y="36.7004" width="2.08696" height="1.04348" fill="white"/>
<rect x="15.8696" y="38.2656" width="1.56522" height="4.69565" fill="white"/>
<rect x="19.5217" y="38.2656" width="1.56522" height="4.69565" fill="white"/>
<rect x="26.8261" y="34.0917" width="2.08696" height="8.86957" fill="white"/>
<rect x="35.1739" y="34.0917" width="2.08696" height="7.30435" fill="white"/>
<rect x="40.913" y="34.0917" width="2.08696" height="7.30435" fill="white"/>
<rect x="36.2174" y="41.396" width="5.73913" height="1.56522" fill="white"/>
<rect x="28.913" y="37.7438" width="1.04348" height="2.6087" fill="white"/>
<rect x="29.9565" y="36.7004" width="1.04348" height="5.21739" fill="white"/>
<rect x="31" y="39.3091" width="1.04348" height="3.65217" fill="white"/>
<rect x="31" y="35.1351" width="1.04348" height="3.13043" fill="white"/>
<rect x="32.0435" y="40.8743" width="1.04348" height="2.08696" fill="white"/>
<rect x="32.0435" y="34.0917" width="1.04348" height="2.08696" fill="white"/>
<rect x="33.087" y="41.9177" width="1.04348" height="1.04348" fill="white"/>
<rect x="33.087" y="34.0917" width="1.04348" height="1.04348" fill="white"/>
<rect x="19.5217" y="38.2656" width="4.69565" height="1.04348" fill="white"/>
<rect x="23.1739" y="39.3091" width="1.56522" height="3.65217" fill="white"/>
<rect x="14.8261" y="41.9177" width="3.65217" height="1.04348" fill="white"/>
</svg>
