<svg width="112" height="36" viewBox="0 0 112 36" fill="none" xmlns="http://www.w3.org/2000/svg">
<rect width="112" height="36" rx="3" fill="#2C7F3E"/>
<rect x="0.897844" y="-0.197172" width="7.88691" height="4.21215" rx="2.10607" transform="matrix(0.842319 0.538979 0.538979 -0.842319 35.2478 9.79583)" stroke="white" stroke-width="1.3"/>
<rect x="0.897844" y="-0.197172" width="7.88691" height="4.21215" rx="2.10607" transform="matrix(0.842319 0.538979 0.538979 -0.842319 38.1267 13.8202)" stroke="white" stroke-width="1.3"/>
<path d="M41 16.0003L44 17.0003V27.0003H41V16.0003Z" fill="white"/>
<rect x="41" y="25.0003" width="7" height="2" fill="white"/>
<rect x="50" y="18.0003" width="5" height="2" fill="white"/>
<rect x="51" y="15.0003" width="4" height="2" fill="white"/>
<rect x="52" y="18.0003" width="3" height="9" fill="white"/>
<rect x="59" y="18.0003" width="3" height="9" fill="white"/>
<rect x="73" y="10.0003" width="4" height="17" fill="white"/>
<rect x="89" y="10.0003" width="4" height="14" fill="white"/>
<rect x="100" y="10.0003" width="4" height="14" fill="white"/>
<rect x="91" y="24.0003" width="11" height="3" fill="white"/>
<rect x="77" y="17.0003" width="2" height="5" fill="white"/>
<rect x="79" y="15.0003" width="2" height="10" fill="white"/>
<rect x="81" y="20.0003" width="2" height="7" fill="white"/>
<rect x="81" y="12.0003" width="2" height="6" fill="white"/>
<rect x="83" y="23.0003" width="2" height="4" fill="white"/>
<rect x="83" y="10.0003" width="2" height="4" fill="white"/>
<rect x="85" y="25.0003" width="2" height="2" fill="white"/>
<rect x="85" y="10.0003" width="2" height="2" fill="white"/>
<rect x="59" y="18.0003" width="9" height="2" fill="white"/>
<rect x="66" y="20.0003" width="3" height="7" fill="white"/>
<rect x="50" y="25.0003" width="7" height="2" fill="white"/>
<path fill-rule="evenodd" clip-rule="evenodd" d="M28.9492 11.2688C28.763 10.5431 28.4131 9.77879 27.9535 8.78906L27.8385 8.84249C26.9716 8.92994 26.2931 9.11171 25.7309 9.46882C25.1763 9.8211 24.7825 10.3138 24.4254 10.9366C22.3602 10.2782 20.203 10.5498 18.298 11.4224C18.1414 11.4941 17.9863 11.57 17.8329 11.6498C17.5205 11.7662 17.2166 11.8971 16.9221 12.0415L16.8971 12.0165C16.3669 11.4865 15.8409 11.0997 15.19 10.9041C14.5434 10.7098 13.8305 10.7213 12.9562 10.8777L12.464 10.9658L12.5591 11.4974L12.4853 11.4971L12.483 11.9971C12.4824 12.1438 12.4807 12.2861 12.479 12.425C12.4702 13.1679 12.4625 13.8122 12.6189 14.5073C9.46149 14.6421 7.98378 16.4469 8.06256 18.0248C8.10261 18.827 8.587 19.574 9.47707 19.7127C10.2271 19.8296 11.1047 19.4825 12.0282 18.6604C11.9979 18.9366 11.9824 19.2167 11.9824 19.5C11.9824 20.0934 12.0504 20.6726 12.1797 21.2317C12.2735 22.1703 12.5356 23.1159 12.9954 24.0419L12.9079 24.0855C13.7321 25.7361 15.3567 26.9298 17.2542 27.5826C18.9228 28.1567 20.8388 28.3269 22.6989 28.0089C26.1197 28.1253 28.8038 26.745 30.3346 24.528C31.7556 22.4699 32.1441 19.7467 31.2705 16.9608C31.7687 17.0378 32.2271 17.0079 32.6232 16.8859C33.3949 16.6481 33.9631 16.0274 33.9107 15.2186C33.8605 14.4429 33.2498 13.7332 32.2276 13.2329C31.473 12.8636 30.4459 12.5798 29.106 12.4434C29.1031 12.0442 29.0505 11.6637 28.9492 11.2688Z" fill="white"/>
</svg>
